<svg width="162" height="185" viewBox="0 0 162 185" fill="none" xmlns="http://www.w3.org/2000/svg">
<path d="M160.549 34.7775C156.567 18.4382 143.513 5.1269 127.277 0.91381C115.637 -2.10689 104.496 2.75658 95.0436 9.70492C93.8683 10.5685 92.5268 11.0527 91.2467 11.685L101.487 18.2648C104.171 19.9883 104.952 23.5655 103.223 26.2538C101.61 28.765 98.063 29.8164 95.228 27.9881L58.8828 4.6391C51.3976 0.718693 43.1963 -1.28668 34.7239 0.91381C18.4877 5.13051 5.43369 18.4382 1.4524 34.7775C-2.21068 49.816 1.30052 63.9764 9.22695 74.6789C17.6741 86.0861 21.0443 99.4877 22.3497 113.468C23.9407 130.508 26.0851 147.49 29.9217 164.169L32.7423 176.436C33.8958 181.448 38.3436 185 43.4712 185C48.5228 185 52.9272 181.549 54.153 176.631L66.6176 126.616C68.2666 119.997 74.1969 115.357 80.9951 115.357C87.7933 115.357 93.7237 120 95.3726 126.616L107.837 176.631C109.063 181.549 113.467 185 118.519 185C123.647 185 128.094 181.448 129.248 176.436L132.069 164.169C135.905 147.494 138.046 130.508 139.641 113.468C140.946 99.4841 144.316 86.0861 152.763 74.6789C160.701 63.98 164.212 49.8196 160.549 34.7775Z" fill="gray"/>
</svg>
